<svg width="376" height="180" viewBox="0 0 376 180" fill="none" xmlns="http://www.w3.org/2000/svg">
<g clip-path="url(#clip0_1_2)">
<rect x="185.39" y="91" width="18" height="18" transform="rotate(43.499 185.39 91)" fill="#F37D50"/>
<rect x="185.409" y="91.7069" width="17" height="17" transform="rotate(43.499 185.409 91.7069)" stroke="black" stroke-opacity="0.08"/>
<rect x="186.013" y="110" width="16" height="16" transform="rotate(43.499 186.013 110)" fill="#F4EFD3"/>
<rect x="186.032" y="110.707" width="15" height="15" transform="rotate(43.499 186.032 110.707)" stroke="black" stroke-opacity="0.13"/>
<path d="M72.135 42.2V87H63.623L41.287 59.8V87H31.047V42.2H39.623L61.895 69.4V42.2H72.135ZM140.398 87.768C133.998 87.768 129.006 85.9973 125.422 82.456C121.881 78.9147 120.11 73.8587 120.11 67.288V42.2H130.478V66.904C130.478 74.9253 133.806 78.936 140.462 78.936C143.705 78.936 146.18 77.976 147.886 76.056C149.593 74.0933 150.446 71.0427 150.446 66.904V42.2H160.686V67.288C160.686 73.8587 158.894 78.9147 155.31 82.456C151.769 85.9973 146.798 87.768 140.398 87.768ZM249.46 87L249.396 60.12L236.212 82.264H231.54L218.42 60.696V87H208.692V42.2H217.268L234.036 70.04L250.548 42.2H259.06L259.188 87H249.46ZM337.081 77.4H316.281L312.313 87H301.689L321.657 42.2H331.897L351.929 87H341.049L337.081 77.4ZM333.817 69.528L326.713 52.376L319.609 69.528H333.817Z" fill="black"/>
<path d="M217.721 122.144C216.057 122.144 214.553 121.776 213.209 121.04C211.881 120.304 210.833 119.288 210.065 117.992C209.313 116.68 208.937 115.216 208.937 113.6C208.937 111.984 209.313 110.528 210.065 109.232C210.833 107.92 211.889 106.896 213.233 106.16C214.577 105.424 216.081 105.056 217.745 105.056C218.993 105.056 220.145 105.264 221.201 105.68C222.257 106.096 223.153 106.704 223.889 107.504L222.761 108.632C221.449 107.304 219.793 106.64 217.793 106.64C216.465 106.64 215.257 106.944 214.169 107.552C213.081 108.16 212.225 108.992 211.601 110.048C210.993 111.104 210.689 112.288 210.689 113.6C210.689 114.912 210.993 116.096 211.601 117.152C212.225 118.208 213.081 119.04 214.169 119.648C215.257 120.256 216.465 120.56 217.793 120.56C219.809 120.56 221.465 119.888 222.761 118.544L223.889 119.672C223.153 120.472 222.249 121.088 221.177 121.52C220.121 121.936 218.969 122.144 217.721 122.144ZM240.427 122.144C238.763 122.144 237.251 121.776 235.891 121.04C234.547 120.288 233.491 119.264 232.723 117.968C231.971 116.672 231.595 115.216 231.595 113.6C231.595 111.984 231.971 110.528 232.723 109.232C233.491 107.936 234.547 106.92 235.891 106.184C237.251 105.432 238.763 105.056 240.427 105.056C242.091 105.056 243.587 105.424 244.915 106.16C246.259 106.896 247.315 107.92 248.083 109.232C248.851 110.528 249.235 111.984 249.235 113.6C249.235 115.216 248.851 116.68 248.083 117.992C247.315 119.288 246.259 120.304 244.915 121.04C243.587 121.776 242.091 122.144 240.427 122.144ZM240.427 120.56C241.755 120.56 242.955 120.264 244.027 119.672C245.099 119.064 245.939 118.232 246.547 117.176C247.155 116.104 247.459 114.912 247.459 113.6C247.459 112.288 247.155 111.104 246.547 110.048C245.939 108.976 245.099 108.144 244.027 107.552C242.955 106.944 241.755 106.64 240.427 106.64C239.099 106.64 237.891 106.944 236.803 107.552C235.731 108.144 234.883 108.976 234.259 110.048C233.651 111.104 233.347 112.288 233.347 113.6C233.347 114.912 233.651 116.104 234.259 117.176C234.883 118.232 235.731 119.064 236.803 119.672C237.891 120.264 239.099 120.56 240.427 120.56ZM258.976 105.2H260.752V120.464H270.16V122H258.976V105.2ZM290.749 120.464V122H278.869V105.2H290.389V106.736H280.645V112.712H289.333V114.224H280.645V120.464H290.749ZM312.422 113.6H314.126V120.008C313.342 120.696 312.414 121.224 311.342 121.592C310.27 121.96 309.142 122.144 307.958 122.144C306.278 122.144 304.766 121.776 303.422 121.04C302.078 120.304 301.022 119.288 300.254 117.992C299.486 116.68 299.102 115.216 299.102 113.6C299.102 111.984 299.486 110.528 300.254 109.232C301.022 107.92 302.078 106.896 303.422 106.16C304.766 105.424 306.286 105.056 307.982 105.056C309.262 105.056 310.438 105.264 311.51 105.68C312.582 106.08 313.486 106.68 314.222 107.48L313.118 108.608C311.79 107.296 310.102 106.64 308.054 106.64C306.694 106.64 305.462 106.944 304.358 107.552C303.27 108.144 302.414 108.976 301.79 110.048C301.166 111.104 300.854 112.288 300.854 113.6C300.854 114.912 301.166 116.096 301.79 117.152C302.414 118.208 303.27 119.04 304.358 119.648C305.446 120.256 306.67 120.56 308.03 120.56C309.758 120.56 311.222 120.128 312.422 119.264V113.6ZM324.912 105.2H326.688V122H324.912V105.2ZM345.258 122.144C343.594 122.144 342.082 121.776 340.722 121.04C339.378 120.288 338.322 119.264 337.554 117.968C336.802 116.672 336.426 115.216 336.426 113.6C336.426 111.984 336.802 110.528 337.554 109.232C338.322 107.936 339.378 106.92 340.722 106.184C342.082 105.432 343.594 105.056 345.258 105.056C346.922 105.056 348.418 105.424 349.746 106.16C351.09 106.896 352.146 107.92 352.914 109.232C353.682 110.528 354.066 111.984 354.066 113.6C354.066 115.216 353.682 116.68 352.914 117.992C352.146 119.288 351.09 120.304 349.746 121.04C348.418 121.776 346.922 122.144 345.258 122.144ZM345.258 120.56C346.586 120.56 347.786 120.264 348.858 119.672C349.93 119.064 350.77 118.232 351.378 117.176C351.986 116.104 352.29 114.912 352.29 113.6C352.29 112.288 351.986 111.104 351.378 110.048C350.77 108.976 349.93 108.144 348.858 107.552C347.786 106.944 346.586 106.64 345.258 106.64C343.93 106.64 342.722 106.944 341.634 107.552C340.562 108.144 339.714 108.976 339.09 110.048C338.482 111.104 338.178 112.288 338.178 113.6C338.178 114.912 338.482 116.104 339.09 117.176C339.714 118.232 340.562 119.064 341.634 119.672C342.722 120.264 343.93 120.56 345.258 120.56Z" fill="black"/>
<rect x="185.144" y="96" width="22" height="22" transform="rotate(43.499 185.144 96)" fill="#58BDC3"/>
<line x1="31" y1="112" x2="172" y2="112" stroke="#58BDC3" stroke-width="2"/>
</g>
<defs>
<clipPath id="clip0_1_2">
<rect width="376" height="180" fill="white"/>
</clipPath>
</defs>
</svg>
